<svg width="133" height="27" viewBox="0 0 133 27" fill="none" xmlns="http://www.w3.org/2000/svg">
<path d="M12 1.852V4.79H4.434V9.444H10.232V12.33H4.434V20H0.794V1.852H12ZM17.7011 0.76V20H14.0611V0.76H17.7011ZM27.1734 20.234C25.7868 20.234 24.5388 19.9307 23.4294 19.324C22.3201 18.7 21.4448 17.8247 20.8034 16.698C20.1794 15.5713 19.8674 14.2713 19.8674 12.798C19.8674 11.3247 20.1881 10.0247 20.8294 8.898C21.4881 7.77133 22.3808 6.90467 23.5074 6.298C24.6341 5.674 25.8908 5.362 27.2774 5.362C28.6641 5.362 29.9208 5.674 31.0474 6.298C32.1741 6.90467 33.0581 7.77133 33.6994 8.898C34.3581 10.0247 34.6874 11.3247 34.6874 12.798C34.6874 14.2713 34.3494 15.5713 33.6734 16.698C33.0148 17.8247 32.1134 18.7 30.9694 19.324C29.8428 19.9307 28.5774 20.234 27.1734 20.234ZM27.1734 17.062C27.8321 17.062 28.4474 16.906 29.0194 16.594C29.6088 16.2647 30.0768 15.7793 30.4234 15.138C30.7701 14.4967 30.9434 13.7167 30.9434 12.798C30.9434 11.4287 30.5794 10.38 29.8514 9.652C29.1408 8.90667 28.2654 8.534 27.2254 8.534C26.1854 8.534 25.3101 8.90667 24.5994 9.652C23.9061 10.38 23.5594 11.4287 23.5594 12.798C23.5594 14.1673 23.8974 15.2247 24.5734 15.97C25.2668 16.698 26.1334 17.062 27.1734 17.062ZM56.8055 5.596L52.5935 20H48.6675L46.0415 9.938L43.4155 20H39.4635L35.2255 5.596H38.9175L41.4655 16.568L44.2215 5.596H48.0695L50.7735 16.542L53.3215 5.596H56.8055ZM71.645 12.486C71.645 13.006 71.6103 13.474 71.541 13.89H61.011C61.0977 14.93 61.4617 15.7447 62.103 16.334C62.7443 16.9233 63.533 17.218 64.469 17.218C65.821 17.218 66.783 16.6373 67.355 15.476H71.281C70.865 16.8627 70.0677 18.0067 68.889 18.908C67.7103 19.792 66.263 20.234 64.547 20.234C63.1603 20.234 61.9123 19.9307 60.803 19.324C59.711 18.7 58.853 17.8247 58.229 16.698C57.6223 15.5713 57.319 14.2713 57.319 12.798C57.319 11.3073 57.6223 9.99867 58.229 8.872C58.8357 7.74533 59.685 6.87867 60.777 6.272C61.869 5.66533 63.1257 5.362 64.547 5.362C65.9163 5.362 67.1383 5.65667 68.213 6.246C69.305 6.83533 70.1457 7.676 70.735 8.768C71.3417 9.84267 71.645 11.082 71.645 12.486ZM67.875 11.446C67.8577 10.51 67.5197 9.76467 66.861 9.21C66.2023 8.638 65.3963 8.352 64.443 8.352C63.5417 8.352 62.779 8.62933 62.155 9.184C61.5483 9.72133 61.1757 10.4753 61.037 11.446H67.875ZM77.4219 7.832C77.8899 7.06933 78.4966 6.47133 79.2419 6.038C80.0046 5.60467 80.8712 5.388 81.8419 5.388V9.21H80.8799C79.7359 9.21 78.8692 9.47867 78.2799 10.016C77.7079 10.5533 77.4219 11.4893 77.4219 12.824V20H73.7819V5.596H77.4219V7.832ZM83.3836 12.928C83.3836 11.472 83.6696 10.198 84.2416 9.106C84.8309 8.014 85.6369 7.17333 86.6596 6.584C87.6996 5.99467 88.8783 5.7 90.1956 5.7C91.6863 5.7 92.9516 6.064 93.9916 6.792C95.0316 7.52 95.7596 8.44733 96.1756 9.574V5.882H97.3456V20H96.1756V16.282C95.7596 17.426 95.0229 18.3707 93.9656 19.116C92.9256 19.844 91.6689 20.208 90.1956 20.208C88.8783 20.208 87.6996 19.9133 86.6596 19.324C85.6369 18.7173 84.8309 17.868 84.2416 16.776C83.6696 15.6667 83.3836 14.384 83.3836 12.928ZM96.1756 12.928C96.1756 11.6973 95.9156 10.614 95.3956 9.678C94.8929 8.72467 94.1996 7.99667 93.3156 7.494C92.4316 6.974 91.4436 6.714 90.3516 6.714C89.2076 6.714 88.2023 6.96533 87.3356 7.468C86.4689 7.95333 85.7929 8.664 85.3076 9.6C84.8223 10.536 84.5796 11.6453 84.5796 12.928C84.5796 14.2107 84.8223 15.32 85.3076 16.256C85.7929 17.192 86.4689 17.9113 87.3356 18.414C88.2196 18.9167 89.2249 19.168 90.3516 19.168C91.4436 19.168 92.4316 18.9167 93.3156 18.414C94.2169 17.894 94.9189 17.166 95.4216 16.23C95.9243 15.2767 96.1756 14.176 96.1756 12.928ZM102.256 9.6C102.654 8.456 103.374 7.52 104.414 6.792C105.471 6.064 106.745 5.7 108.236 5.7C109.553 5.7 110.723 5.99467 111.746 6.584C112.786 7.17333 113.592 8.014 114.164 9.106C114.753 10.198 115.048 11.472 115.048 12.928C115.048 14.384 114.753 15.6667 114.164 16.776C113.592 17.868 112.786 18.7173 111.746 19.324C110.723 19.9133 109.553 20.208 108.236 20.208C106.762 20.208 105.497 19.844 104.44 19.116C103.4 18.3707 102.672 17.4347 102.256 16.308V26.656H101.086V5.882H102.256V9.6ZM113.852 12.928C113.852 11.6453 113.609 10.536 113.124 9.6C112.638 8.664 111.954 7.95333 111.07 7.468C110.203 6.96533 109.198 6.714 108.054 6.714C106.962 6.714 105.974 6.974 105.09 7.494C104.206 7.99667 103.512 8.72467 103.01 9.678C102.507 10.614 102.256 11.6973 102.256 12.928C102.256 14.176 102.507 15.2767 103.01 16.23C103.512 17.166 104.206 17.894 105.09 18.414C105.974 18.9167 106.962 19.168 108.054 19.168C109.198 19.168 110.203 18.9167 111.07 18.414C111.954 17.9113 112.638 17.192 113.124 16.256C113.609 15.32 113.852 14.2107 113.852 12.928ZM119.23 9.6C119.629 8.456 120.348 7.52 121.388 6.792C122.445 6.064 123.719 5.7 125.21 5.7C126.527 5.7 127.697 5.99467 128.72 6.584C129.76 7.17333 130.566 8.014 131.138 9.106C131.727 10.198 132.022 11.472 132.022 12.928C132.022 14.384 131.727 15.6667 131.138 16.776C130.566 17.868 129.76 18.7173 128.72 19.324C127.697 19.9133 126.527 20.208 125.21 20.208C123.737 20.208 122.471 19.844 121.414 19.116C120.374 18.3707 119.646 17.4347 119.23 16.308V26.656H118.06V5.882H119.23V9.6ZM130.826 12.928C130.826 11.6453 130.583 10.536 130.098 9.6C129.613 8.664 128.928 7.95333 128.044 7.468C127.177 6.96533 126.172 6.714 125.028 6.714C123.936 6.714 122.948 6.974 122.064 7.494C121.18 7.99667 120.487 8.72467 119.984 9.678C119.481 10.614 119.23 11.6973 119.23 12.928C119.23 14.176 119.481 15.2767 119.984 16.23C120.487 17.166 121.18 17.894 122.064 18.414C122.948 18.9167 123.936 19.168 125.028 19.168C126.172 19.168 127.177 18.9167 128.044 18.414C128.928 17.9113 129.613 17.192 130.098 16.256C130.583 15.32 130.826 14.2107 130.826 12.928Z" fill="#282830"/>
</svg>
